<?xml version="1.0" standalone="no"?>
<!DOCTYPE svg PUBLIC "-//W3C//DTD SVG 20010904//EN"
 "http://www.w3.org/TR/2001/REC-SVG-20010904/DTD/svg10.dtd">
<svg version="1.0" xmlns="http://www.w3.org/2000/svg"
 width="1164.000000pt" height="874.000000pt" viewBox="0 0 1164.000000 874.000000"
 preserveAspectRatio="xMidYMid meet">

<g transform="translate(0.000000,874.000000) scale(0.100000,-0.100000)"
fill="#000000" stroke="none">
<path d="M4650 8148 c-80 -40 -171 -179 -276 -425 -238 -553 -354 -1196 -371
-2058 -15 -747 76 -1426 293 -2182 l63 -221 -19 -167 c-10 -92 -21 -169 -23
-172 -3 -2 -178 -27 -389 -54 -947 -122 -1352 -213 -1778 -401 -378 -166 -790
-435 -1047 -681 -103 -99 -154 -171 -160 -230 -16 -137 117 -173 390 -103 225
58 476 162 1007 416 568 272 1949 904 1957 896 13 -12 -93 -686 -178 -1136
-95 -501 -162 -780 -221 -915 -49 -112 -94 -177 -121 -173 -22 3 -30 23 -89
218 -8 27 -19 45 -28 45 -23 0 -26 -175 -5 -232 35 -92 122 -129 182 -79 42
35 110 161 153 284 89 252 268 1180 361 1868 l22 162 60 26 c33 14 61 25 62
23 0 -1 23 -58 50 -127 110 -278 267 -550 389 -673 77 -79 133 -104 193 -88
54 15 107 74 127 141 33 112 66 443 66 670 0 52 3 118 6 146 l6 51 64 10 64 9
5 -30 c3 -17 16 -103 30 -191 28 -176 55 -286 85 -345 71 -138 209 -91 269 93
28 87 41 206 41 389 l0 157 53 10 c130 27 203 39 210 34 4 -2 7 -12 7 -22 0
-39 91 -383 133 -503 72 -207 158 -328 273 -384 101 -49 221 -21 301 71 58 65
101 160 188 415 42 124 99 279 127 345 48 115 155 331 182 367 7 10 76 37 157
62 630 196 1009 381 1009 493 0 82 -87 92 -333 38 -256 -55 -457 -129 -586
-216 -86 -57 -213 -179 -261 -252 -30 -45 -36 -47 -451 -152 -408 -103 -652
-157 -659 -145 -13 21 -71 353 -63 360 4 4 44 22 88 40 44 18 499 211 1010
430 1063 455 1198 512 1570 660 655 262 1277 519 1548 640 33 15 47 27 47 41
0 11 -6 22 -13 25 -7 2 -109 -36 -227 -86 -224 -95 -656 -268 -1235 -495 -515
-202 -793 -317 -2020 -840 -774 -330 -786 -334 -790 -322 -2 7 -20 95 -39 197
-44 230 -76 347 -111 406 -25 42 -75 84 -101 84 -30 0 -55 -39 -75 -115 -18
-70 -22 -120 -28 -408 l-6 -328 -147 -64 c-125 -53 -148 -60 -152 -46 -18 60
-77 492 -141 1026 -46 386 -68 530 -87 552 -15 18 -43 16 -59 -4 -19 -23 -15
-294 11 -778 12 -209 24 -501 27 -650 l6 -270 -234 -102 c-129 -56 -285 -124
-347 -152 l-113 -50 -10 27 c-19 50 -87 261 -100 312 -11 43 -9 87 14 338 15
158 48 526 72 817 25 292 72 825 105 1185 65 719 123 1394 140 1650 17 243 18
639 1 727 -21 115 -58 147 -131 111z m67 -109 c14 -69 16 -474 3 -684 -15
-235 -64 -817 -121 -1430 -27 -297 -81 -900 -119 -1340 -89 -1029 -91 -1053
-102 -1024 -5 12 -31 113 -59 223 -93 372 -153 713 -196 1121 -22 215 -26
1043 -5 1275 45 508 98 811 198 1147 111 373 259 695 346 756 33 23 42 16 55
-44z m1244 -3865 c23 -84 101 -510 97 -531 -3 -13 -91 -57 -157 -78 l-24 -7 6
298 c6 319 18 428 45 401 8 -8 23 -46 33 -83z m-572 -738 c6 -33 11 -66 11
-73 0 -13 -60 -46 -68 -38 -2 2 -8 124 -12 272 -5 147 -11 315 -14 373 -4 79
4 32 33 -185 21 -159 44 -317 50 -349z m3021 483 c-42 -36 -254 -142 -398
-199 -91 -36 -537 -190 -549 -190 -10 0 61 74 120 126 74 65 195 129 333 177
160 56 409 114 494 116 l35 0 -35 -30z m-2304 -541 c17 -95 30 -174 29 -176
-1 -1 -57 -13 -123 -26 l-120 -23 -6 30 c-3 16 -6 87 -6 157 l0 127 93 40 c50
23 94 42 97 42 3 1 19 -77 36 -171z m-308 -95 l-3 -147 -123 -22 c-86 -15
-125 -18 -127 -10 -6 17 -33 201 -31 204 5 4 271 120 279 121 4 1 6 -65 5
-146z m1450 90 c-2 -5 -23 -46 -47 -93 -69 -134 -136 -297 -218 -530 -114
-326 -159 -412 -233 -450 -135 -69 -259 43 -360 325 -28 79 -142 506 -136 512
1 1 85 21 187 43 209 47 769 187 777 195 8 8 34 6 30 -2z m-1813 -294 c-5 -4
-31 -10 -57 -13 l-48 -7 0 86 0 86 43 18 42 18 15 -91 c11 -62 13 -93 5 -97z
m-187 39 l-3 -73 -220 -32 c-121 -18 -228 -32 -238 -30 -16 2 434 206 456 207
4 0 7 -33 5 -72z m-809 -98 c12 -39 19 -75 16 -80 -3 -6 -20 -10 -37 -10 l-31
0 7 53 c3 28 6 64 6 80 0 46 15 30 39 -43z m1361 -126 c0 -232 -28 -370 -85
-424 -25 -23 -25 -23 -39 -4 -8 10 -22 44 -30 74 -21 74 -87 462 -80 469 6 6
174 38 212 40 22 1 22 0 22 -155z m-554 -81 c-18 -393 -46 -616 -87 -701 -21
-42 -28 -47 -60 -50 -33 -3 -41 3 -95 60 -79 85 -142 182 -235 363 -76 147
-174 373 -166 381 5 5 581 91 621 93 l29 1 -7 -147z m-1066 -2 c-8 -5 -206
-95 -440 -201 -539 -244 -995 -455 -1320 -610 -660 -316 -920 -423 -1151 -476
-101 -23 -213 -24 -235 -3 -15 16 -15 20 2 55 28 60 224 249 381 366 381 285
783 489 1199 609 269 78 649 149 1139 213 149 20 299 40 335 45 91 12 109 13
90 2z"/>
</g>
</svg>
