<?xml version="1.0" standalone="no"?>
<!DOCTYPE svg PUBLIC "-//W3C//DTD SVG 20010904//EN"
 "http://www.w3.org/TR/2001/REC-SVG-20010904/DTD/svg10.dtd">
<svg version="1.0" xmlns="http://www.w3.org/2000/svg"
 width="1108.000000pt" height="932.000000pt" viewBox="0 0 1108.000000 932.000000"
 preserveAspectRatio="xMidYMid meet">

<g transform="translate(0.000000,932.000000) scale(0.100000,-0.100000)"
fill="#000000" stroke="none">
<path d="M6055 8853 c-962 -87 -1973 -495 -2865 -1154 -778 -574 -1458 -1376
-1876 -2211 -445 -889 -599 -1805 -438 -2608 104 -518 340 -943 714 -1286 353
-323 703 -522 1231 -702 345 -118 648 -156 954 -122 158 18 296 65 303 103 5
24 -17 22 -117 -12 -200 -69 -574 -69 -856 -1 -426 102 -892 312 -1202 541
-367 271 -609 549 -778 894 -158 322 -232 632 -256 1063 -52 962 324 2048
1035 2990 541 715 1112 1229 1877 1687 712 426 1435 675 2224 767 164 19 559
16 730 -6 394 -49 879 -177 1283 -337 567 -225 1033 -522 1417 -904 240 -238
409 -473 565 -783 181 -361 256 -645 267 -1012 13 -408 -59 -730 -248 -1116
-222 -453 -578 -838 -1161 -1257 -177 -127 -341 -230 -630 -395 -200 -114
-235 -140 -208 -157 10 -6 251 122 480 255 254 147 540 348 780 548 142 119
382 358 474 472 278 348 470 755 547 1164 31 160 38 521 14 707 -32 257 -101
479 -234 754 -163 336 -334 579 -590 835 -437 437 -903 727 -1572 978 -365
138 -854 258 -1209 297 -123 14 -538 19 -655 8z"/>
<path d="M6874 6706 c-79 -25 -165 -79 -215 -135 -143 -160 -269 -560 -328
-1039 -37 -300 -46 -475 -46 -957 0 -419 2 -478 18 -540 29 -114 83 -188 161
-220 36 -15 40 -15 55 0 15 15 14 18 -14 40 -16 13 -45 36 -63 51 -79 64 -92
129 -99 494 -17 887 78 1591 267 1975 80 162 139 222 264 265 98 34 267 20
370 -29 72 -36 202 -148 279 -243 104 -128 173 -241 282 -463 221 -451 303
-735 350 -1210 9 -88 22 -230 31 -315 18 -188 20 -196 40 -204 35 -13 47 14
40 89 -57 657 -77 795 -152 1055 -62 216 -181 495 -314 741 -86 160 -108 192
-214 328 -79 101 -228 236 -307 277 -87 45 -317 67 -405 40z"/>
<path d="M3980 6154 c-164 -35 -320 -130 -454 -275 -62 -67 -146 -189 -188
-274 -165 -331 -284 -953 -264 -1381 7 -159 28 -315 52 -389 32 -97 95 -205
120 -205 29 0 24 26 -20 113 -75 150 -103 344 -93 657 12 380 84 748 208 1067
101 259 287 475 494 575 81 39 190 68 257 68 181 1 370 -131 471 -327 145
-281 197 -615 174 -1103 -6 -118 -11 -316 -11 -440 0 -261 10 -312 88 -469 39
-76 50 -91 70 -91 40 0 38 27 -8 123 -81 168 -93 291 -71 727 29 550 -3 854
-121 1146 -70 176 -123 255 -237 352 -141 121 -296 163 -467 126z"/>
<path d="M6661 3125 l-164 -44 -71 24 c-102 34 -152 41 -159 22 -7 -20 9 -33
53 -42 19 -4 46 -12 60 -18 29 -11 51 -4 -365 -111 -374 -96 -913 -200 -1245
-241 -202 -25 -422 -30 -505 -12 -54 12 -73 13 -82 4 -18 -18 -4 -32 52 -51
144 -50 532 -23 1060 74 349 65 484 94 839 186 203 52 379 93 391 90 45 -11
168 -110 234 -187 194 -228 287 -495 321 -926 17 -215 -10 -513 -61 -680 -50
-161 -165 -340 -300 -468 -203 -191 -663 -425 -969 -491 -65 -15 -127 -19
-260 -19 -166 0 -179 1 -255 28 -258 91 -497 352 -709 775 -188 375 -273 671
-310 1077 -16 172 -21 195 -41 195 -21 0 -25 -25 -25 -153 1 -485 224 -1100
567 -1562 172 -231 334 -351 558 -413 75 -21 359 -23 450 -3 230 49 444 132
675 263 238 135 364 233 471 367 196 245 265 462 276 866 8 319 -36 602 -132
839 -81 202 -225 391 -372 488 l-52 34 127 32 c188 46 182 45 182 23 0 -30 24
-45 50 -31 18 10 21 18 16 43 -16 81 -68 85 -305 22z"/>
<path d="M5613 2738 c-4 -7 -10 -86 -11 -175 -4 -185 10 -328 63 -618 46 -252
51 -292 70 -480 20 -201 46 -352 91 -525 45 -179 67 -234 91 -238 29 -4 47 22
34 47 -33 62 -115 465 -136 673 -22 213 -38 323 -80 548 -45 248 -65 413 -66
565 -1 153 -9 209 -31 213 -9 2 -20 -3 -25 -10z"/>
</g>
</svg>
